<svg xmlns="http://www.w3.org/2000/svg" width="20" height="20">
<g>
  <title>background</title>
  <rect fill="none" id="canvas_background" height="22" width="22" y="-1" x="-1"/>
</g>
<g>
  <title>Layer 1</title>
  <path fill="#000000" stroke="null" id="svg_1" d="m17.589172,15.460859l-5.460859,-5.460858l5.460859,-5.46086c0.589571,-0.589572 0.589571,-1.538741 0,-2.128313c-0.589573,-0.589572 -1.538742,-0.589572 -2.128313,0l-5.460859,5.46086l-5.460858,-5.46086c-0.589572,-0.589572 -1.538742,-0.589572 -2.128314,0c-0.589572,0.589572 -0.589572,1.538742 0,2.128314l5.460859,5.460859l-5.460859,5.460858c-0.589572,0.589571 -0.589572,1.538742 0,2.128311c0.589572,0.589573 1.538742,0.589573 2.128314,0l5.460858,-5.460857l5.460859,5.460857c0.589571,0.589573 1.538742,0.589573 2.128313,0c0.58539,-0.589571 0.58539,-1.542921 0,-2.128311z"/>
</g>
</svg>
