<svg width="258" height="29" viewBox="0 0 258 29" fill="none" xmlns="http://www.w3.org/2000/svg">
<path d="M35.4682 27.7381H36.0939V28.1275H27.6076V27.777H28.1942C28.6374 27.777 29.0155 27.6083 29.3283 27.2708C29.6412 26.9074 29.7715 26.518 29.7194 26.1027L27.9596 6.51646L19.747 24.7009C19.017 26.2844 18.5738 27.6083 18.4174 28.6726H18.0263L8.0148 7.0616L6.33319 26.1027C6.28104 26.518 6.4114 26.9074 6.72426 27.2708C7.03712 27.6083 7.40212 27.777 7.81927 27.777H8.44498V28.1275H0.858154V27.7381H1.48387C2.21388 27.7381 2.83959 27.5174 3.36103 27.0761C3.90853 26.6348 4.23442 26.0378 4.33871 25.285L7.27176 0.325195H7.66284L18.5738 23.8053L29.2501 0.325195H29.6021L32.6133 25.285C32.7437 26.3233 33.2651 27.0502 34.1776 27.4655C34.5687 27.6472 34.9989 27.7381 35.4682 27.7381ZM45.9841 5.77662C47.9916 4.73826 50.1947 4.21907 52.5932 4.21907C55.0181 4.21907 57.2341 4.73826 59.2417 5.77662C61.2492 6.78903 62.8395 8.22977 64.0128 10.0988C65.212 11.9679 65.8117 14.0836 65.8117 16.4458C65.8117 18.8081 65.212 20.9238 64.0128 22.7929C62.8395 24.6619 61.2492 26.1156 59.2417 27.154C57.2341 28.1664 55.1745 28.6726 53.0625 28.6726C50.9507 28.6726 49.0866 28.3741 47.4702 27.777C45.8537 27.18 44.4459 26.3493 43.2466 25.285C42.0734 24.2206 41.1348 22.9227 40.4308 21.3911C39.753 19.8595 39.4141 18.0683 39.4141 16.0175C39.4141 13.9408 40.0007 11.9679 41.1739 10.0988C42.3732 8.22977 43.9766 6.78903 45.9841 5.77662ZM45.2411 24.4283C47.2225 26.4791 49.6732 27.5045 52.5932 27.5045C55.5134 27.5045 57.9641 26.4791 59.9456 24.4283C61.927 22.3516 62.9177 19.6907 62.9177 16.4458C62.9177 13.201 61.927 10.5531 59.9456 8.50234C57.9641 6.4256 55.5134 5.38724 52.5932 5.38724C49.6732 5.38724 47.2225 6.4256 45.2411 8.50234C43.2857 10.5531 42.308 13.201 42.308 16.4458C42.308 19.6907 43.2857 22.3516 45.2411 24.4283ZM77.4429 5.77662C79.4504 4.73826 81.6534 4.21907 84.052 4.21907C86.4767 4.21907 88.6928 4.73826 90.7003 5.77662C92.7078 6.78903 94.2982 8.22977 95.4714 10.0988C96.6707 11.9679 97.2703 14.0836 97.2703 16.4458C97.2703 18.8081 96.6707 20.9238 95.4714 22.7929C94.2982 24.6619 92.7078 26.1156 90.7003 27.154C88.6928 28.1664 86.6331 28.6726 84.5213 28.6726C82.4095 28.6726 80.5454 28.3741 78.929 27.777C77.3125 27.18 75.9047 26.3493 74.7048 25.285C73.5321 24.2206 72.5936 22.9227 71.8896 21.3911C71.2112 19.8595 70.8723 18.0683 70.8723 16.0175C70.8723 13.9408 71.4589 11.9679 72.6327 10.0988C73.8314 8.22977 75.4354 6.78903 77.4429 5.77662ZM76.6998 24.4283C78.6813 26.4791 81.132 27.5045 84.052 27.5045C86.972 27.5045 89.4228 26.4791 91.4042 24.4283C93.3857 22.3516 94.3764 19.6907 94.3764 16.4458C94.3764 13.201 93.3857 10.5531 91.4042 8.50234C89.4228 6.4256 86.972 5.38724 84.052 5.38724C81.132 5.38724 78.6813 6.4256 76.6998 8.50234C74.7445 10.5531 73.7668 13.201 73.7668 16.4458C73.7668 19.6907 74.7445 22.3516 76.6998 24.4283ZM128.616 5.1536C128.042 5.1536 127.547 5.3483 127.13 5.73769C126.713 6.10111 126.491 6.5554 126.465 7.10054V23.6885C126.465 25.1941 126.556 26.6218 126.739 27.9717L126.817 28.6726H126.465L106.129 9.47581V25.7133C106.129 26.2844 106.338 26.7646 106.755 27.154C107.172 27.5434 107.68 27.7381 108.28 27.7381H108.945V28.1275H101.554V27.7381H102.218C102.818 27.7381 103.327 27.5434 103.744 27.154C104.161 26.7646 104.369 26.2844 104.369 25.7133V9.04748C104.369 7.46397 104.278 6.0492 104.096 4.80315L104.017 4.18013L104.448 4.21907L124.744 23.2601V7.10054C124.692 6.5554 124.458 6.10111 124.04 5.73769C123.623 5.3483 123.128 5.1536 122.554 5.1536H121.889V4.76422H129.281V5.1536H128.616ZM153.187 2.07744H150.684V25.285C150.684 25.9599 150.919 26.544 151.388 27.0372C151.883 27.5045 152.483 27.7381 153.187 27.7381H153.656L153.695 28.1275H145.131V27.7381H145.639C146.317 27.7381 146.891 27.5045 147.36 27.0372C147.855 26.5699 148.116 25.9988 148.142 25.3239V3.71287C148.116 3.03793 147.855 2.46683 147.36 1.99956C146.891 1.50634 146.317 1.25973 145.639 1.25973H145.131V0.870339H155.69C158.062 0.870339 159.926 1.5323 161.282 2.85622C162.638 4.15418 163.316 5.8545 163.316 7.95719C163.316 10.0339 162.664 11.8381 161.36 13.3697C160.083 14.8753 158.518 15.6281 156.667 15.6281C157.058 15.8098 157.515 16.1733 158.036 16.7184C158.584 17.2376 159.066 17.7827 159.483 18.3538C161.725 21.5468 163.185 23.5197 163.863 24.2725C164.541 24.9994 165.023 25.5056 165.31 25.7912C165.597 26.0507 165.91 26.3103 166.249 26.5699C166.588 26.8295 166.927 27.0372 167.265 27.193C168.022 27.5564 168.83 27.7381 169.69 27.7381V28.1275H167.539C166.418 28.1275 165.375 27.9328 164.411 27.5434C163.446 27.1281 162.716 26.7127 162.221 26.2974C161.751 25.8561 161.334 25.4407 160.969 25.0513C160.63 24.636 159.666 23.2861 158.075 21.0017C156.485 18.7173 155.559 17.4193 155.299 17.1078C155.038 16.7703 154.764 16.4458 154.477 16.1343C153.643 15.2517 152.809 14.8104 151.974 14.8104V14.421C152.183 14.447 152.457 14.46 152.796 14.46C153.135 14.46 153.552 14.447 154.047 14.421C157.28 14.3432 159.314 12.9933 160.148 10.3714C160.304 9.85222 160.383 9.37197 160.383 8.93067C160.383 8.4634 160.383 8.16487 160.383 8.03507C160.33 6.29581 159.874 4.89401 159.014 3.82969C158.153 2.76536 156.993 2.19426 155.533 2.11638C154.908 2.09042 154.125 2.07744 153.187 2.07744ZM171.938 27.7381C172.642 27.7381 173.255 27.5304 173.776 27.1151C174.298 26.6997 174.558 26.2065 174.558 25.6354V7.2563C174.558 6.6852 174.298 6.19197 173.776 5.77662C173.255 5.36128 172.629 5.1536 171.899 5.1536H171.391V4.76422H180.229V5.1536H179.721C179.017 5.1536 178.404 5.3483 177.883 5.73769C177.387 6.12707 177.113 6.60732 177.061 7.17842V25.6743C177.087 26.2454 177.361 26.7387 177.883 27.154C178.404 27.5434 179.017 27.7381 179.721 27.7381H180.229L180.268 28.1275H171.391V27.7381H171.938ZM209.713 5.1536H209.4C208.827 5.1536 208.266 5.3483 207.719 5.73769C207.171 6.10111 206.702 6.65924 206.311 7.41205C200.627 19.5609 197.668 25.9209 197.434 26.4921C196.99 27.5823 196.756 28.3092 196.73 28.6726H196.378L186.718 7.45099C185.962 5.9194 184.958 5.1536 183.707 5.1536H183.394V4.76422H191.411V5.1536H191.098C190.603 5.1536 190.225 5.33532 189.964 5.69875C189.729 6.03622 189.612 6.34773 189.612 6.63328C189.612 6.91883 189.651 7.21736 189.729 7.52887L196.73 24.5062L203.925 7.60675C204.056 7.26928 204.121 6.95777 204.121 6.67222C204.121 6.36071 203.991 6.03622 203.73 5.69875C203.469 5.33532 203.078 5.1536 202.557 5.1536H202.283V4.76422H209.713V5.1536ZM213.354 27.7381C213.98 27.7381 214.501 27.5434 214.918 27.154C215.362 26.7387 215.596 26.2454 215.622 25.6743V7.17842C215.622 6.60732 215.401 6.12707 214.957 5.73769C214.514 5.3483 213.98 5.1536 213.354 5.1536H212.807V4.76422H224.226C225.295 4.76422 226.233 4.68634 227.042 4.53058C227.85 4.37483 228.371 4.24503 228.606 4.1412V8.58022L228.176 8.54128V7.95719C228.176 7.41205 227.993 6.94479 227.628 6.5554C227.263 6.16601 226.794 5.97132 226.22 5.97132H218.086V15.8618H224.773C225.295 15.8618 225.686 15.706 225.947 15.3945C226.233 15.083 226.377 14.6936 226.377 14.2263V13.7201H226.807V19.1716H226.377V18.6654C226.377 17.9385 226.103 17.4453 225.556 17.1857C225.347 17.1078 225.125 17.0559 224.891 17.0299H218.086V26.9204H224.226C225.425 26.9204 226.429 26.7127 227.237 26.2974C228.071 25.882 228.697 25.3888 229.114 24.8177C229.558 24.2466 230.001 23.4938 230.444 22.5592H230.835L228.684 28.1275H212.807V27.7381H213.354ZM242.259 5.97132H240.187V25.6354C240.213 26.4401 240.578 27.0502 241.282 27.4655C241.621 27.6472 241.999 27.7381 242.416 27.7381H242.924L242.963 28.1275H234.946V27.7381H235.494C236.093 27.7381 236.602 27.5434 237.019 27.154C237.462 26.7387 237.684 26.2454 237.684 25.6743V7.17842C237.684 6.60732 237.462 6.12707 237.019 5.73769C236.602 5.3483 236.093 5.1536 235.494 5.1536H234.946V4.76422H244.762C247.213 4.76422 249.142 5.32234 250.55 6.43858C251.984 7.55483 252.701 9.02152 252.701 10.8387C252.701 12.6558 252.127 14.1744 250.98 15.3945C249.833 16.6146 248.373 17.3155 246.6 17.4972C247.434 17.8606 248.438 18.873 249.611 20.5344C249.585 20.5344 250.029 21.1055 250.941 22.2477C251.88 23.3899 252.623 24.2855 253.17 24.9345C253.744 25.5575 254.213 26.0378 254.578 26.3752C255.543 27.2838 256.651 27.7381 257.902 27.7381V28.1275H256.69C254.63 28.1275 253.014 27.7251 251.841 26.9204C250.954 26.3233 250.146 25.5835 249.416 24.7009C249.26 24.4932 248.595 23.5846 247.421 21.9752C246.274 20.3397 245.662 19.4701 245.583 19.3663C244.176 17.627 242.859 16.7574 241.634 16.7574V16.368C244.684 16.368 246.522 16.2122 247.148 15.9007C248.008 15.4594 248.595 14.9921 248.908 14.4989C249.559 13.4605 249.885 12.3183 249.885 11.0723C249.885 9.48879 249.416 8.26871 248.477 7.41205C247.539 6.5554 246.274 6.08813 244.684 6.01026C243.98 5.9843 243.172 5.97132 242.259 5.97132Z" fill="#272727"/>
</svg>
