<svg width="66" height="80" viewBox="0 0 66 80" fill="none" xmlns="http://www.w3.org/2000/svg">
<g filter="url(#filter0_d)">
<path d="M32.999 6C20.8201 6 10.9106 15.9094 10.9106 28.0896C10.9106 31.2666 11.5609 34.3 12.8424 37.1062C18.3651 49.1912 28.9537 61.9504 32.0681 65.5726C32.3015 65.8434 32.6416 65.9994 32.9996 65.9994C33.3576 65.9994 33.6978 65.8434 33.9311 65.5726C37.0443 61.951 47.6329 49.1924 53.1574 37.1062C54.4395 34.3 55.0892 31.2666 55.0892 28.0896C55.088 15.9094 45.1786 6 32.999 6ZM32.999 39.563C26.6725 39.563 21.525 34.4155 21.525 28.089C21.525 21.7619 26.6725 16.6144 32.999 16.6144C39.3255 16.6144 44.473 21.7619 44.473 28.089C44.4736 34.4155 39.3261 39.563 32.999 39.563Z" fill="#FF0000"/>
</g>
<defs>
<filter id="filter0_d" x="-7" y="0" width="80" height="80" filterUnits="userSpaceOnUse" color-interpolation-filters="sRGB">
<feFlood flood-opacity="0" result="BackgroundImageFix"/>
<feColorMatrix in="SourceAlpha" type="matrix" values="0 0 0 0 0 0 0 0 0 0 0 0 0 0 0 0 0 0 127 0"/>
<feOffset dy="4"/>
<feGaussianBlur stdDeviation="5"/>
<feColorMatrix type="matrix" values="0 0 0 0 0 0 0 0 0 0 0 0 0 0 0 0 0 0 0.7 0"/>
<feBlend mode="normal" in2="BackgroundImageFix" result="effect1_dropShadow"/>
<feBlend mode="normal" in="SourceGraphic" in2="effect1_dropShadow" result="shape"/>
</filter>
</defs>
</svg>
